<svg width="561" height="439" viewBox="0 0 561 439" fill="none" xmlns="http://www.w3.org/2000/svg">
<path d="M239.075 31.7251L218.75 0.475098C78.125 95.0001 0 209.85 0 304.375C0 395.775 67.2 438.75 124.225 438.75C196.1 438.75 246.875 377.8 246.875 313.75C246.875 259.85 212.5 213.75 166.4 196.55C153.125 191.85 140.625 187.95 140.625 165.3C140.625 136.4 161.725 93.4501 239.075 31.7251ZM549.225 31.7251L528.9 0.475098C389.825 95.0001 310.15 209.85 310.15 304.375C310.15 395.775 378.9 438.75 435.925 438.75C508.575 438.75 560.15 377.8 560.15 313.75C560.15 259.85 525 213.75 477.325 196.55C464.05 191.85 452.325 187.95 452.325 165.3C452.325 136.4 474.2 93.4251 549.2 31.7001L549.225 31.7251Z" fill="black"/>
</svg>
